<mxfile host="Electron" agent="Mozilla/5.0 (Windows NT 10.0; Win64; x64) AppleWebKit/537.36 (KHTML, like Gecko) draw.io/26.2.2 Chrome/134.0.6998.178 Electron/35.1.2 Safari/537.36" version="26.2.2">
  <diagram name="PÃ¡gina-1" id="VqLqr_oehTiEtZfxVfmn">
    <mxGraphModel dx="2867" dy="1201" grid="1" gridSize="10" guides="1" tooltips="1" connect="1" arrows="1" fold="1" page="1" pageScale="1" pageWidth="827" pageHeight="1169" background="none" math="0" shadow="0">
      <root>
        <mxCell id="0" />
        <mxCell id="1" parent="0" />
        <mxCell id="L909cJxihNp31IS73p3x-10" value="" style="rounded=1;whiteSpace=wrap;html=1;absoluteArcSize=1;arcSize=14;strokeWidth=2;fontSize=25;" parent="1" vertex="1">
          <mxGeometry x="485" y="100" width="605" height="540" as="geometry" />
        </mxCell>
        <mxCell id="L909cJxihNp31IS73p3x-8" value="" style="rounded=1;whiteSpace=wrap;html=1;absoluteArcSize=1;arcSize=14;strokeWidth=2;fontSize=25;" parent="1" vertex="1">
          <mxGeometry x="505" y="150" width="410" height="160" as="geometry" />
        </mxCell>
        <mxCell id="yt6BolCJ6O4ZZ3NJw7HE-9" style="edgeStyle=orthogonalEdgeStyle;rounded=0;orthogonalLoop=1;jettySize=auto;html=1;fontSize=25;exitX=0.005;exitY=0.407;exitDx=0;exitDy=0;exitPerimeter=0;entryX=0.5;entryY=0;entryDx=0;entryDy=0;" parent="1" source="L909cJxihNp31IS73p3x-12" target="yt6BolCJ6O4ZZ3NJw7HE-7" edge="1">
          <mxGeometry relative="1" as="geometry">
            <mxPoint x="390" y="680" as="sourcePoint" />
          </mxGeometry>
        </mxCell>
        <mxCell id="yt6BolCJ6O4ZZ3NJw7HE-18" value="Sends&lt;br style=&quot;font-size: 25px;&quot;&gt;Telemetry" style="edgeLabel;html=1;align=center;verticalAlign=middle;resizable=0;points=[];fontSize=25;" parent="yt6BolCJ6O4ZZ3NJw7HE-9" vertex="1" connectable="0">
          <mxGeometry x="0.1411" relative="1" as="geometry">
            <mxPoint x="25" as="offset" />
          </mxGeometry>
        </mxCell>
        <mxCell id="yt6BolCJ6O4ZZ3NJw7HE-6" style="edgeStyle=orthogonalEdgeStyle;rounded=0;orthogonalLoop=1;jettySize=auto;html=1;exitX=1;exitY=0.5;exitDx=0;exitDy=0;exitPerimeter=0;fontSize=25;entryX=1;entryY=0.25;entryDx=0;entryDy=0;" parent="1" source="yt6BolCJ6O4ZZ3NJw7HE-2" target="L909cJxihNp31IS73p3x-12" edge="1">
          <mxGeometry relative="1" as="geometry">
            <mxPoint x="985" y="240" as="targetPoint" />
            <Array as="points">
              <mxPoint x="827" y="211" />
              <mxPoint x="1040" y="211" />
              <mxPoint x="1040" y="403" />
            </Array>
          </mxGeometry>
        </mxCell>
        <mxCell id="yt6BolCJ6O4ZZ3NJw7HE-16" value="Maniputates&lt;br style=&quot;font-size: 25px;&quot;&gt;with SRv6" style="edgeLabel;html=1;align=center;verticalAlign=middle;resizable=0;points=[];fontSize=25;" parent="yt6BolCJ6O4ZZ3NJw7HE-6" vertex="1" connectable="0">
          <mxGeometry x="-0.5946" y="-3" relative="1" as="geometry">
            <mxPoint x="68" y="69" as="offset" />
          </mxGeometry>
        </mxCell>
        <mxCell id="yt6BolCJ6O4ZZ3NJw7HE-24" value="&lt;font style=&quot;font-size: 25px;&quot; face=&quot;Helvetica&quot;&gt;Contains&lt;/font&gt;" style="edgeStyle=orthogonalEdgeStyle;rounded=0;sketch=0;hachureGap=4;jiggle=2;curveFitting=1;orthogonalLoop=1;jettySize=auto;html=1;entryX=1;entryY=0.5;entryDx=0;entryDy=0;shadow=0;strokeColor=default;fontFamily=Architects Daughter;fontSource=https%3A%2F%2Ffonts.googleapis.com%2Fcss%3Ffamily%3DArchitects%2BDaughter;fontSize=25;exitX=0;exitY=0.5;exitDx=0;exitDy=0;exitPerimeter=0;shape=link;entryPerimeter=0;" parent="1" source="yt6BolCJ6O4ZZ3NJw7HE-2" target="p_7pogcTV9KLCBR6zQ41-2" edge="1">
          <mxGeometry x="0.0971" relative="1" as="geometry">
            <Array as="points">
              <mxPoint x="663" y="214" />
            </Array>
            <mxPoint as="offset" />
          </mxGeometry>
        </mxCell>
        <mxCell id="yt6BolCJ6O4ZZ3NJw7HE-2" value="SDN Controller" style="verticalLabelPosition=bottom;sketch=0;html=1;fillColor=#6ABD46;strokeColor=#ffffff;verticalAlign=top;align=center;points=[[0.085,0.085,0],[0.915,0.085,0],[0.915,0.915,0],[0.085,0.915,0],[0.25,0,0],[0.5,0,0],[0.75,0,0],[1,0.25,0],[1,0.5,0],[1,0.75,0],[0.75,1,0],[0.5,1,0],[0.25,1,0],[0,0.75,0],[0,0.5,0],[0,0.25,0]];pointerEvents=1;shape=mxgraph.cisco_safe.compositeIcon;bgIcon=mxgraph.cisco_safe.architecture.generic_appliance;resIcon=mxgraph.cisco_safe.architecture.aci_controller;fontSize=25;" parent="1" vertex="1">
          <mxGeometry x="770" y="184" width="57" height="60" as="geometry" />
        </mxCell>
        <mxCell id="yt6BolCJ6O4ZZ3NJw7HE-4" value="InfluxDB" style="shape=datastore;whiteSpace=wrap;html=1;fontSize=25;" parent="1" vertex="1">
          <mxGeometry x="-60" y="488" width="100.8" height="102" as="geometry" />
        </mxCell>
        <mxCell id="yt6BolCJ6O4ZZ3NJw7HE-13" style="edgeStyle=orthogonalEdgeStyle;rounded=0;orthogonalLoop=1;jettySize=auto;html=1;fontSize=25;exitX=0.477;exitY=0.961;exitDx=0;exitDy=0;exitPerimeter=0;entryX=0.15;entryY=0.05;entryDx=0;entryDy=0;entryPerimeter=0;" parent="1" source="yt6BolCJ6O4ZZ3NJw7HE-5" target="yt6BolCJ6O4ZZ3NJw7HE-4" edge="1">
          <mxGeometry relative="1" as="geometry">
            <Array as="points">
              <mxPoint x="-107" y="360" />
              <mxPoint x="-45" y="360" />
            </Array>
            <mxPoint x="-28" y="410" as="targetPoint" />
          </mxGeometry>
        </mxCell>
        <mxCell id="yt6BolCJ6O4ZZ3NJw7HE-14" value="Reads" style="edgeLabel;html=1;align=center;verticalAlign=middle;resizable=0;points=[];fontSize=25;" parent="yt6BolCJ6O4ZZ3NJw7HE-13" vertex="1" connectable="0">
          <mxGeometry x="0.1431" y="3" relative="1" as="geometry">
            <mxPoint x="24" y="3" as="offset" />
          </mxGeometry>
        </mxCell>
        <mxCell id="yt6BolCJ6O4ZZ3NJw7HE-5" value="Grafana" style="aspect=fixed;html=1;points=[];align=center;image;fontSize=25;image=img/lib/azure2/other/Grafana.svg;" parent="1" vertex="1">
          <mxGeometry x="-152" y="52.2" width="93.76" height="72.8" as="geometry" />
        </mxCell>
        <mxCell id="yt6BolCJ6O4ZZ3NJw7HE-8" style="edgeStyle=orthogonalEdgeStyle;rounded=0;orthogonalLoop=1;jettySize=auto;html=1;exitX=0;exitY=0.5;exitDx=0;exitDy=0;entryX=1;entryY=0.5;entryDx=0;entryDy=0;fontSize=25;" parent="1" source="yt6BolCJ6O4ZZ3NJw7HE-7" target="yt6BolCJ6O4ZZ3NJw7HE-4" edge="1">
          <mxGeometry relative="1" as="geometry" />
        </mxCell>
        <mxCell id="yt6BolCJ6O4ZZ3NJw7HE-15" value="Writes" style="edgeLabel;html=1;align=center;verticalAlign=middle;resizable=0;points=[];fontSize=25;" parent="yt6BolCJ6O4ZZ3NJw7HE-8" vertex="1" connectable="0">
          <mxGeometry x="0.1754" y="2" relative="1" as="geometry">
            <mxPoint as="offset" />
          </mxGeometry>
        </mxCell>
        <mxCell id="yt6BolCJ6O4ZZ3NJw7HE-7" value="INT Collector" style="aspect=fixed;perimeter=ellipsePerimeter;html=1;align=center;shadow=0;dashed=0;spacingTop=3;image;image=img/lib/active_directory/mainframe_host.svg;fontSize=25;" parent="1" vertex="1">
          <mxGeometry x="221.33" y="491.99" width="46.08" height="64" as="geometry" />
        </mxCell>
        <mxCell id="p_7pogcTV9KLCBR6zQ41-3" value="Reads" style="edgeStyle=orthogonalEdgeStyle;rounded=0;orthogonalLoop=1;jettySize=auto;html=1;exitX=0.5;exitY=1;exitDx=0;exitDy=0;exitPerimeter=0;entryX=0.85;entryY=0.05;entryDx=0;entryDy=0;entryPerimeter=0;fontSize=25;" parent="1" source="p_7pogcTV9KLCBR6zQ41-1" target="yt6BolCJ6O4ZZ3NJw7HE-4" edge="1">
          <mxGeometry x="0.0436" relative="1" as="geometry">
            <Array as="points">
              <mxPoint x="121" y="360" />
              <mxPoint x="26" y="360" />
            </Array>
            <mxPoint x="63" y="361" as="targetPoint" />
            <mxPoint as="offset" />
          </mxGeometry>
        </mxCell>
        <mxCell id="p_7pogcTV9KLCBR6zQ41-7" style="edgeStyle=orthogonalEdgeStyle;rounded=0;orthogonalLoop=1;jettySize=auto;html=1;entryX=0.5;entryY=0;entryDx=0;entryDy=0;fontSize=25;" parent="1" source="p_7pogcTV9KLCBR6zQ41-6" target="yt6BolCJ6O4ZZ3NJw7HE-4" edge="1">
          <mxGeometry relative="1" as="geometry">
            <Array as="points">
              <mxPoint x="-10" y="45" />
            </Array>
          </mxGeometry>
        </mxCell>
        <mxCell id="6R4ueeL0Bs8kGJtLsEFX-3" value="&lt;font style=&quot;font-size: 25px;&quot;&gt;Reads&lt;/font&gt;" style="edgeLabel;html=1;align=center;verticalAlign=middle;resizable=0;points=[];fontSize=25;fontFamily=Helvetica;" parent="p_7pogcTV9KLCBR6zQ41-7" vertex="1" connectable="0">
          <mxGeometry x="0.169" y="-1" relative="1" as="geometry">
            <mxPoint as="offset" />
          </mxGeometry>
        </mxCell>
        <mxCell id="p_7pogcTV9KLCBR6zQ41-1" value="INT Analyzer" style="html=1;whiteSpace=wrap;strokeColor=none;fillColor=#0079D6;labelPosition=center;verticalLabelPosition=middle;verticalAlign=top;align=center;fontSize=25;outlineConnect=0;spacingTop=-6;fontColor=#FFFFFF;sketch=0;shape=mxgraph.sitemap.script;" parent="1" vertex="1">
          <mxGeometry x="40.8" y="156.37" width="159.2" height="115.25" as="geometry" />
        </mxCell>
        <mxCell id="p_7pogcTV9KLCBR6zQ41-2" value="CLI" style="outlineConnect=0;dashed=0;verticalLabelPosition=bottom;verticalAlign=top;align=center;html=1;shape=mxgraph.aws3.cli;fillColor=#444444;gradientColor=none;fontSize=25;" parent="1" vertex="1">
          <mxGeometry x="538" y="172.75" width="72" height="82.5" as="geometry" />
        </mxCell>
        <mxCell id="p_7pogcTV9KLCBR6zQ41-4" value="Runs CLI Commands" style="edgeStyle=orthogonalEdgeStyle;rounded=0;orthogonalLoop=1;jettySize=auto;html=1;exitX=1;exitY=0.5;exitDx=0;exitDy=0;exitPerimeter=0;entryX=0.145;entryY=0.5;entryDx=0;entryDy=0;entryPerimeter=0;fontSize=25;" parent="1" source="p_7pogcTV9KLCBR6zQ41-1" target="p_7pogcTV9KLCBR6zQ41-2" edge="1">
          <mxGeometry x="-0.1964" relative="1" as="geometry">
            <mxPoint x="194" y="186.39999999999998" as="sourcePoint" />
            <mxPoint x="409" y="220" as="targetPoint" />
            <Array as="points">
              <mxPoint x="208" y="214" />
            </Array>
            <mxPoint as="offset" />
          </mxGeometry>
        </mxCell>
        <mxCell id="p_7pogcTV9KLCBR6zQ41-5" value="Python" style="text;html=1;align=center;verticalAlign=middle;resizable=0;points=[];autosize=1;strokeColor=none;fillColor=none;fontSize=25;" parent="1" vertex="1">
          <mxGeometry x="121.33000000000001" y="275.25" width="100" height="40" as="geometry" />
        </mxCell>
        <mxCell id="p_7pogcTV9KLCBR6zQ41-6" value="&lt;font style=&quot;font-size: 25px;&quot;&gt;Visualizer&lt;/font&gt;" style="sketch=0;pointerEvents=1;shadow=0;dashed=0;html=1;strokeColor=none;fillColor=#505050;labelPosition=center;verticalLabelPosition=bottom;verticalAlign=top;outlineConnect=0;align=center;shape=mxgraph.office.servers.topology_builder;fontSize=25;" parent="1" vertex="1">
          <mxGeometry x="82.75" y="10" width="70" height="69" as="geometry" />
        </mxCell>
        <mxCell id="L909cJxihNp31IS73p3x-1" value="Python" style="text;html=1;align=center;verticalAlign=middle;resizable=0;points=[];autosize=1;strokeColor=none;fillColor=none;fontSize=25;" parent="1" vertex="1">
          <mxGeometry x="152.75" y="24.5" width="100" height="40" as="geometry" />
        </mxCell>
        <mxCell id="L909cJxihNp31IS73p3x-2" value="Python" style="text;html=1;align=center;verticalAlign=middle;resizable=0;points=[];autosize=1;strokeColor=none;fillColor=none;fontSize=25;" parent="1" vertex="1">
          <mxGeometry x="155.84000000000003" y="600" width="100" height="40" as="geometry" />
        </mxCell>
        <mxCell id="L909cJxihNp31IS73p3x-9" value="&lt;font style=&quot;font-size: 25px;&quot;&gt;ONOS&lt;/font&gt;" style="text;html=1;align=center;verticalAlign=middle;resizable=0;points=[];autosize=1;strokeColor=none;fillColor=none;fontSize=25;" parent="1" vertex="1">
          <mxGeometry x="815" y="150" width="100" height="40" as="geometry" />
        </mxCell>
        <mxCell id="L909cJxihNp31IS73p3x-11" value="&lt;font style=&quot;font-size: 25px;&quot;&gt;DOCKER&lt;/font&gt;" style="text;html=1;align=center;verticalAlign=middle;resizable=0;points=[];autosize=1;strokeColor=none;fillColor=none;fontSize=25;" parent="1" vertex="1">
          <mxGeometry x="485" y="100" width="130" height="40" as="geometry" />
        </mxCell>
        <mxCell id="L909cJxihNp31IS73p3x-12" value="" style="rounded=1;whiteSpace=wrap;html=1;absoluteArcSize=1;arcSize=14;strokeWidth=2;fontSize=25;" parent="1" vertex="1">
          <mxGeometry x="505" y="330" width="410" height="290" as="geometry" />
        </mxCell>
        <mxCell id="L909cJxihNp31IS73p3x-15" value="&lt;font style=&quot;font-size: 25px;&quot;&gt;MININET&lt;/font&gt;" style="text;html=1;align=center;verticalAlign=middle;resizable=0;points=[];autosize=1;strokeColor=none;fillColor=none;fontSize=25;" parent="1" vertex="1">
          <mxGeometry x="785" y="330" width="130" height="40" as="geometry" />
        </mxCell>
        <mxCell id="L909cJxihNp31IS73p3x-16" value="&lt;font style=&quot;font-size: 25px;&quot;&gt;Switch&lt;/font&gt;" style="sketch=0;points=[[0.015,0.015,0],[0.985,0.015,0],[0.985,0.985,0],[0.015,0.985,0],[0.25,0,0],[0.5,0,0],[0.75,0,0],[1,0.25,0],[1,0.5,0],[1,0.75,0],[0.75,1,0],[0.5,1,0],[0.25,1,0],[0,0.75,0],[0,0.5,0],[0,0.25,0]];verticalLabelPosition=bottom;html=1;verticalAlign=top;aspect=fixed;align=center;pointerEvents=1;shape=mxgraph.cisco19.rect;prIcon=l2_switch;fillColor=#FAFAFA;strokeColor=#005073;fontSize=25;" parent="1" vertex="1">
          <mxGeometry x="743" y="462" width="50" height="50" as="geometry" />
        </mxCell>
        <mxCell id="L909cJxihNp31IS73p3x-18" value="&lt;font style=&quot;font-size: 25px;&quot;&gt;Host&lt;/font&gt;" style="sketch=0;pointerEvents=1;shadow=0;dashed=0;html=1;strokeColor=none;labelPosition=center;verticalLabelPosition=bottom;verticalAlign=top;align=center;fillColor=#505050;shape=mxgraph.mscae.intune.device_group;fontSize=25;" parent="1" vertex="1">
          <mxGeometry x="676" y="530" width="50" height="50" as="geometry" />
        </mxCell>
        <mxCell id="L909cJxihNp31IS73p3x-19" value="&lt;font style=&quot;font-size: 25px;&quot;&gt;Host&lt;/font&gt;" style="sketch=0;pointerEvents=1;shadow=0;dashed=0;html=1;strokeColor=none;labelPosition=center;verticalLabelPosition=bottom;verticalAlign=top;align=center;fillColor=#505050;shape=mxgraph.mscae.intune.device_group;fontSize=25;" parent="1" vertex="1">
          <mxGeometry x="815" y="530" width="50" height="50" as="geometry" />
        </mxCell>
        <mxCell id="L909cJxihNp31IS73p3x-21" value="&lt;font style=&quot;font-size: 25px;&quot;&gt;Switch&lt;/font&gt;" style="sketch=0;points=[[0.015,0.015,0],[0.985,0.015,0],[0.985,0.985,0],[0.015,0.985,0],[0.25,0,0],[0.5,0,0],[0.75,0,0],[1,0.25,0],[1,0.5,0],[1,0.75,0],[0.75,1,0],[0.5,1,0],[0.25,1,0],[0,0.75,0],[0,0.5,0],[0,0.25,0]];verticalLabelPosition=bottom;html=1;verticalAlign=top;aspect=fixed;align=center;pointerEvents=1;shape=mxgraph.cisco19.rect;prIcon=l2_switch;fillColor=#FAFAFA;strokeColor=#005073;fontSize=25;" parent="1" vertex="1">
          <mxGeometry x="631" y="412" width="50" height="50" as="geometry" />
        </mxCell>
        <mxCell id="L909cJxihNp31IS73p3x-24" value="&lt;font style=&quot;font-size: 25px;&quot;&gt;Host&lt;/font&gt;" style="sketch=0;pointerEvents=1;shadow=0;dashed=0;html=1;strokeColor=none;labelPosition=center;verticalLabelPosition=bottom;verticalAlign=top;align=center;fillColor=#505050;shape=mxgraph.mscae.intune.device_group;fontSize=25;" parent="1" vertex="1">
          <mxGeometry x="549" y="487.5" width="50" height="50" as="geometry" />
        </mxCell>
        <mxCell id="L909cJxihNp31IS73p3x-25" value="&lt;font style=&quot;font-size: 25px;&quot;&gt;Host&lt;/font&gt;" style="sketch=0;pointerEvents=1;shadow=0;dashed=0;html=1;strokeColor=none;labelPosition=center;verticalLabelPosition=bottom;verticalAlign=top;align=center;fillColor=#505050;shape=mxgraph.mscae.intune.device_group;fontSize=25;" parent="1" vertex="1">
          <mxGeometry x="549" y="350" width="50" height="50" as="geometry" />
        </mxCell>
        <mxCell id="L909cJxihNp31IS73p3x-27" style="edgeStyle=orthogonalEdgeStyle;rounded=0;orthogonalLoop=1;jettySize=auto;html=1;exitX=1;exitY=0.5;exitDx=0;exitDy=0;exitPerimeter=0;entryX=0.5;entryY=0;entryDx=0;entryDy=0;entryPerimeter=0;fontSize=25;" parent="1" source="L909cJxihNp31IS73p3x-16" target="L909cJxihNp31IS73p3x-19" edge="1">
          <mxGeometry relative="1" as="geometry" />
        </mxCell>
        <mxCell id="L909cJxihNp31IS73p3x-28" style="edgeStyle=orthogonalEdgeStyle;rounded=0;orthogonalLoop=1;jettySize=auto;html=1;exitX=0.5;exitY=0;exitDx=0;exitDy=0;exitPerimeter=0;entryX=1;entryY=0.5;entryDx=0;entryDy=0;entryPerimeter=0;fontSize=25;" parent="1" source="L909cJxihNp31IS73p3x-16" target="L909cJxihNp31IS73p3x-21" edge="1">
          <mxGeometry relative="1" as="geometry" />
        </mxCell>
        <mxCell id="L909cJxihNp31IS73p3x-29" style="edgeStyle=orthogonalEdgeStyle;rounded=0;orthogonalLoop=1;jettySize=auto;html=1;exitX=0;exitY=0.5;exitDx=0;exitDy=0;exitPerimeter=0;entryX=0.5;entryY=0;entryDx=0;entryDy=0;entryPerimeter=0;fontSize=25;" parent="1" source="L909cJxihNp31IS73p3x-16" target="L909cJxihNp31IS73p3x-18" edge="1">
          <mxGeometry relative="1" as="geometry" />
        </mxCell>
        <mxCell id="L909cJxihNp31IS73p3x-30" style="edgeStyle=orthogonalEdgeStyle;rounded=0;orthogonalLoop=1;jettySize=auto;html=1;exitX=0.5;exitY=0;exitDx=0;exitDy=0;exitPerimeter=0;entryX=1;entryY=0.5;entryDx=0;entryDy=0;entryPerimeter=0;fontSize=25;" parent="1" source="L909cJxihNp31IS73p3x-21" target="L909cJxihNp31IS73p3x-25" edge="1">
          <mxGeometry relative="1" as="geometry" />
        </mxCell>
        <mxCell id="L909cJxihNp31IS73p3x-31" style="edgeStyle=orthogonalEdgeStyle;rounded=0;orthogonalLoop=1;jettySize=auto;html=1;exitX=0.5;exitY=1;exitDx=0;exitDy=0;exitPerimeter=0;entryX=1;entryY=0.5;entryDx=0;entryDy=0;entryPerimeter=0;fontSize=25;" parent="1" source="L909cJxihNp31IS73p3x-21" target="L909cJxihNp31IS73p3x-24" edge="1">
          <mxGeometry relative="1" as="geometry" />
        </mxCell>
        <mxCell id="L909cJxihNp31IS73p3x-32" style="edgeStyle=orthogonalEdgeStyle;rounded=0;orthogonalLoop=1;jettySize=auto;html=1;exitX=1;exitY=0.5;exitDx=0;exitDy=0;exitPerimeter=0;entryX=0.5;entryY=0;entryDx=0;entryDy=0;entryPerimeter=0;fontSize=25;" parent="1" source="L909cJxihNp31IS73p3x-21" target="L909cJxihNp31IS73p3x-16" edge="1">
          <mxGeometry relative="1" as="geometry" />
        </mxCell>
      </root>
    </mxGraphModel>
  </diagram>
</mxfile>
